<svg xmlns="http://www.w3.org/2000/svg" width="115.269" height="77.252" viewBox="0 0 115.269 77.252">
  <g id="bike" transform="translate(-79.66 -122.384)">
    <path id="Path_71" data-name="Path 71" d="M194.231,373.3a4.458,4.458,0,1,1-4.459-4.458,4.458,4.458,0,0,1,4.459,4.458" transform="translate(-88.377 -186.059)" fill="#677b72"/>
    <path id="Path_72" data-name="Path 72" d="M230.078,179.278c-1.36-4.158-7.827-7.342-16.037-8.7a22.485,22.485,0,0,0-5.562-.221l2.244-1.757a10.053,10.053,0,0,0,2.374-13.118l-13.309-21.873H203.7V131.99h.118a2.76,2.76,0,0,0,2.76-2.759v-.056a2.761,2.761,0,0,0-2.76-2.759H203.7v-.9H197.62c-.37-1.649-1.6-4.764-5.424-2.086-5.035,3.524-14.427,10.178-14.427,10.178s-3.682,3.775,1.237,2.876,11.033-8.631,12.111-7.821a4.613,4.613,0,0,0,2.7.808v4.136s5.764,19.854,3.488,28.1l-1.472,5.39A17.15,17.15,0,0,1,179.316,179.7H170.08a9.616,9.616,0,0,1-6.814-2.835l-.1-.1a9.614,9.614,0,0,1,0-13.63l3.565-3.565a1.618,1.618,0,0,0-1.143-2.761h-18.7a31.774,31.774,0,0,0-29.157,19.141l-2.921,9.175h9.532a12.39,12.39,0,1,0,24.6,2.114,12.319,12.319,0,0,0-.193-2.114h42.118v0h10.321l.047-.034c.056-.041.114-.085.17-.127a12.392,12.392,0,1,0,21.675-5.688h7Zm-93.534,15.69a7.732,7.732,0,1,1,7.732-7.732A7.732,7.732,0,0,1,136.544,194.969Zm77.034,0a7.732,7.732,0,1,1,7.732-7.732A7.732,7.732,0,0,1,213.578,194.969Z" transform="translate(-35.15)" fill="#677b72"/>
    <path id="Path_73" data-name="Path 73" d="M508.578,373.3a4.459,4.459,0,1,1-4.459-4.458,4.458,4.458,0,0,1,4.459,4.458" transform="translate(-325.69 -186.059)" fill="#677b72"/>
  </g>
</svg>
