<svg xmlns="http://www.w3.org/2000/svg" width="129.129" height="72.332" viewBox="0 0 129.129 72.332">
  <g id="helicopter" transform="translate(-3.612)">
    <path id="Path_194" data-name="Path 194" d="M74.444,134.692a7.329,7.329,0,0,1,6.723,4.571h58.619l1.883-3.764h4.571v-5.378h-6.991a3.833,3.833,0,0,1-3.227,1.613H113.433a4.033,4.033,0,0,1,0-8.067h22.587a3.833,3.833,0,0,1,3.227,1.613h19.361a3.833,3.833,0,0,1,3.227-1.613h22.587a4.033,4.033,0,0,1,0,8.067H161.835a3.833,3.833,0,0,1-3.227-1.613h-6.991V135.5h4.571l1.883,3.764h.269a33.505,33.505,0,0,1,33.344,29.848,12.873,12.873,0,0,1-12.638,14.251h-5.109l5.378,7.26a19.89,19.89,0,0,0,12.907-5.916,2.662,2.662,0,0,1,3.764,3.764A25.453,25.453,0,0,1,177.969,196H131.451a2.7,2.7,0,0,1-2.689-2.689,2.541,2.541,0,0,1,2.689-2.689h13.176l-5.378-7.26h-7.26a12.91,12.91,0,0,1-12.907-12.907V158.891L80.9,146.254a7.14,7.14,0,0,1-5.916,2.958,7.23,7.23,0,0,1-7.26-7.26,6.5,6.5,0,0,1,6.722-7.258Zm112.13,32.537a28.77,28.77,0,0,0-27.964-23.124V167.23Zm-36.031,23.394h22.049l-5.378-7.26h-22.05Z" transform="translate(-64.051 -123.668)" fill="#677b72"/>
  </g>
</svg>
