<svg xmlns="http://www.w3.org/2000/svg" width="121.251" height="77.006" viewBox="0 0 121.251 77.006">
  <g id="lorry" transform="translate(-80.521 -127.617)">
    <path id="Path_111" data-name="Path 111" d="M222.755,188.89H199.92V217.6H110.065v15.709h2.163a10.32,10.32,0,0,1,18.857,0h1.75a10.32,10.32,0,0,1,18.857,0h30.664a10.319,10.319,0,0,1,18.856,0h1.75a10.318,10.318,0,0,1,18.855,0h9.5v-23.17Zm1.625,21.869a2.555,2.555,0,0,1-2.226,1.138H211.976a3.562,3.562,0,0,1-3.43-3.674V196.741a3.562,3.562,0,0,1,3.43-3.674H215.8a5.007,5.007,0,0,1,4.365,3.178l4.38,11.885a2.974,2.974,0,0,1-.17,2.628Z" transform="translate(-29.545 -45.791)" fill="#677b72"/>
    <path id="Path_112" data-name="Path 112" d="M405.816,353.16c-5.155,0-9.35,4.491-9.35,10.009s4.2,10.009,9.35,10.009,9.352-4.488,9.352-10.009S410.973,353.16,405.816,353.16Z" transform="translate(-243.58 -168.555)" fill="#677b72"/>
    <path id="Path_113" data-name="Path 113" d="M487.38,353.16c-5.159,0-9.352,4.491-9.352,10.009s4.194,10.009,9.352,10.009,9.352-4.488,9.352-10.009S492.536,353.16,487.38,353.16Z" transform="translate(-304.534 -168.555)" fill="#677b72"/>
    <path id="Path_114" data-name="Path 114" d="M209.846,353.16c-5.156,0-9.35,4.491-9.35,10.009s4.194,10.009,9.35,10.009,9.35-4.488,9.35-10.009S215,353.16,209.846,353.16Z" transform="translate(-97.126 -168.555)" fill="#677b72"/>
    <path id="Path_115" data-name="Path 115" d="M128.27,353.16c-5.156,0-9.352,4.491-9.352,10.009s4.2,10.009,9.352,10.009,9.352-4.488,9.352-10.009S133.426,353.16,128.27,353.16Z" transform="translate(-36.161 -168.555)" fill="#677b72"/>
    <path id="Path_116" data-name="Path 116" d="M129.677,168.738h61.076c6.406,0,11.6-5.639,11.6-12.606V140.21c0-6.954-5.192-12.593-11.6-12.593H129.677c-6.406,0-11.594,5.64-11.594,12.593v15.921C118.083,163.1,123.27,168.738,129.677,168.738Z" transform="translate(-35.537)" fill="#677b72"/>
  </g>
</svg>
