<svg xmlns="http://www.w3.org/2000/svg" width="156.149" height="101.801" viewBox="0 0 156.149 101.801">
  <g id="ship" transform="translate(-82.31 -121.671)">
    <path id="Path_154" data-name="Path 154" d="M512.379,316.053a5.13,5.13,0,1,1-5.129-5.13,5.13,5.13,0,0,1,5.129,5.13" transform="translate(-292.83 -128.406)" fill="#677b72"/>
    <path id="Path_155" data-name="Path 155" d="M246.749,170.8,238.6,141.513h-6.146l-4.865-19.84H208.623v50.293L107.165,175.07s12.124,39.68,16.166,44.455,98.834,4.041,105.814,3.675,31.23-19.84,34.17-52.907Zm-35.118-46.68h13.756l3.637,13.047h-17.39V124.121Zm5.11,71.638a8.117,8.117,0,1,1,8.118-8.117A8.117,8.117,0,0,1,216.741,195.759Zm-3.886-34.9V145.921h23.514l4.164,14.941Zm26.42,34.9a8.117,8.117,0,1,1,8.117-8.117A8.117,8.117,0,0,1,239.275,195.759Z" transform="translate(-24.856)" fill="#677b72"/>
    <path id="Path_156" data-name="Path 156" d="M442.289,316.053a5.13,5.13,0,1,1-5.129-5.13,5.13,5.13,0,0,1,5.129,5.13" transform="translate(-245.274 -128.406)" fill="#677b72"/>
  </g>
</svg>
