<svg xmlns="http://www.w3.org/2000/svg" width="119.913" height="77.252" viewBox="0 0 119.913 77.252">
  <g id="truck" transform="translate(-86.008 -124.017)">
    <path id="Path_29" data-name="Path 29" d="M176.461,336.19a12.339,12.339,0,1,0,12.34,12.338A12.34,12.34,0,0,0,176.461,336.19Zm0,17.96a5.622,5.622,0,1,1,5.625-5.622A5.622,5.622,0,0,1,176.461,354.15Z" transform="translate(-64.181 -159.634)" fill="#677b72"/>
    <path id="Path_30" data-name="Path 30" d="M439.56,336.33A12.339,12.339,0,1,0,451.9,348.67,12.34,12.34,0,0,0,439.56,336.33Zm-.055,17.961a5.623,5.623,0,1,1,5.625-5.623A5.623,5.623,0,0,1,439.505,354.291Z" transform="translate(-262.133 -159.74)" fill="#677b72"/>
    <path id="Path_31" data-name="Path 31" d="M208.083,377.256a2.884,2.884,0,1,1-2.884-2.884,2.884,2.884,0,0,1,2.884,2.884" transform="translate(-92.918 -188.362)" fill="#677b72"/>
    <path id="Path_32" data-name="Path 32" d="M471.183,377.4a2.884,2.884,0,1,1-2.884-2.884,2.884,2.884,0,0,1,2.884,2.884" transform="translate(-290.868 -188.467)" fill="#677b72"/>
    <path id="Path_33" data-name="Path 33" d="M212.185,150.81s-11.3-21.529-11.949-22.828c-.8-1.608-1.446-3.252-3.233-3.252h-18.9v47.266a1.417,1.417,0,0,1-2.833,0V128.041c0-3.341-1.913-4.024-3.634-4.024l-60.633.014a3.241,3.241,0,0,0-3.144,3.243c0,.09.019.176.026.265h-.026v61.707H118.1c0-.119-.01-.236-.01-.354a15.513,15.513,0,1,1,31.025,0c0,.118-.006.234-.007.354h34.1c0-.119-.009-.236-.009-.354a15.514,15.514,0,1,1,31.027,0c0,.118-.009.234-.01.354h13.522l.042-29.5Zm-21.6,13.5h-6.638V162.28h6.638Zm-6.706-8.248V129.833h10.906l12.649,26.235H183.875Z" transform="translate(-21.854)" fill="#677b72"/>
  </g>
</svg>
