<svg xmlns="http://www.w3.org/2000/svg" width="32.459" height="23.607" viewBox="0 0 32.459 23.607">
  <g id="noun-truck-3961765" transform="translate(0 -31.81)">
    <path id="Path_7" data-name="Path 7" d="M28.033,37.712H23.607v-5.9H2.951A2.95,2.95,0,0,0,0,34.761V50.99H2.951a4.426,4.426,0,1,0,8.853,0h8.853a4.426,4.426,0,1,0,8.853,0h2.951V43.613ZM7.377,53.2a2.21,2.21,0,1,1,1.566-.647,2.213,2.213,0,0,1-1.566.647ZM27.294,39.925l2.9,3.688H23.606V39.925ZM25.081,53.2a2.21,2.21,0,1,1,1.566-.648,2.213,2.213,0,0,1-1.566.648Z" transform="translate(0 0)" fill="rgba(0,0,0,0.5)"/>
  </g>
</svg>
